2.6Hz3min_grf.mot
version=1
nRows=27
nColumns 19
inDegrees=yes
endheader
time	1_ground_force_vx	1_ground_force_vy	1_ground_force_vz	1_ground_force_px	1_ground_force_py	1_ground_force_pz	1_ground_torque_x	1_ground_torque_y	1_ground_torque_z	2_ground_force_vx	2_ground_force_vy	2_ground_force_vz	2_ground_force_px	2_ground_force_py	2_ground_force_pz	2_ground_torque_x	2_ground_torque_y	2_ground_torque_z
            0.005000	           -0.045451	           -0.901730	            0.087961	           -0.190152	            0.006439	           -0.453791	           -0.003668	            0.028276	           -0.133379	           -0.230926	           -0.921587	           -0.003186	           -0.213544	            0.005654	           -0.681295	           -0.093859	           -0.019245	           -0.000028
            0.005500	            0.045552	           -0.900533	           -0.187402	           -0.190152	            0.006439	           -0.453791	            0.046003	           -0.037031	            0.020512	           -0.557711	           -1.289729	           -0.379785	           -0.213544	            0.005654	           -0.681295	           -0.000102	            0.028358	            0.000101
            0.006000	           -0.045340	            0.359539	            0.230939	           -0.190152	            0.006439	           -0.453791	           -0.104005	           -0.046008	           -0.058301	           -0.279852	           -0.368642	           -0.188907	           -0.213544	            0.005654	           -0.681295	           -0.056552	            0.056445	            0.019077
            0.006500	            0.183357	           -0.540565	           -0.048630	           -0.190152	            0.006439	           -0.453791	           -0.072958	            0.028121	           -0.067053	           -0.372182	           -0.737612	           -0.096325	           -0.213544	            0.005654	           -0.681295	           -0.056330	           -0.009589	           -0.018860
            0.007000	           -0.091977	           -0.900560	           -0.187061	           -0.190152	            0.006439	           -0.453791	            0.083329	            0.055670	           -0.060240	           -0.281326	            0.000826	           -0.516090	           -0.213544	            0.005654	           -0.681295	           -0.112813	            0.018767	           -0.075285
            0.007500	            0.046088	           -0.721250	            0.042650	           -0.190152	            0.006439	           -0.453791	           -0.095259	            0.027573	            0.039931	           -0.095173	            0.369130	           -0.327143	           -0.213544	            0.005654	           -0.681295	           -0.037648	            0.028021	            0.056668
            0.008000	            0.046023	           -0.360719	            0.044196	           -0.190152	            0.006439	           -0.453791	           -0.114591	            0.037377	           -0.091578	           -0.137412	           -0.919743	           -0.425578	           -0.213544	            0.005654	           -0.681295	           -0.037638	            0.009586	           -0.075351
            0.008500	           -0.045322	           -0.361327	            0.181992	           -0.190152	            0.006439	           -0.453791	           -0.045367	           -0.027351	           -0.095937	           -0.325352	           -0.737275	           -0.143273	           -0.213544	            0.005654	           -0.681295	           -0.094037	            0.028086	           -0.018709
            0.009000	           -0.182590	           -0.542012	            0.273272	           -0.190152	            0.006439	           -0.453791	           -0.011730	            0.000487	           -0.139355	           -0.139988	           -0.183819	           -0.235238	           -0.213544	            0.005654	           -0.681295	           -0.000102	            0.028358	            0.000101
            0.009500	            0.000440	           -0.541387	            0.135249	           -0.190152	            0.006439	           -0.453791	            0.013127	           -0.073698	           -0.056724	           -0.139385	           -0.367465	           -0.376679	           -0.213544	            0.005654	           -0.681295	           -0.075030	           -0.037880	           -0.056654
            0.010000	           -0.091147	           -1.082202	            0.133158	           -0.190152	            0.006439	           -0.453791	           -0.024047	            0.009363	           -0.041367	           -0.469246	            0.183126	           -0.186856	           -0.213544	            0.005654	           -0.681295	            0.000161	           -0.038012	            0.056416
            0.010500	            0.367672	           -0.722368	            0.316989	           -0.190152	            0.006439	           -0.453791	           -0.013370	           -0.008744	           -0.059533	            0.048700	           -0.551104	           -0.330488	           -0.213544	            0.005654	           -0.681295	           -0.037639	            0.018770	            0.000083
            0.011000	            0.000362	           -1.982922	           -0.008503	           -0.190152	            0.006439	           -0.453791	           -0.055147	            0.064854	           -0.037111	           -0.183576	           -1.104228	           -0.379287	           -0.213544	            0.005654	           -0.681295	            0.056330	            0.009589	            0.018860
            0.011500	            0.229476	           -0.180615	            0.090370	           -0.190152	            0.006439	           -0.453791	           -0.003876	            0.064973	           -0.027528	           -0.231132	           -0.919914	           -0.472467	           -0.213544	            0.005654	           -0.681295	           -0.000067	            0.009722	           -0.075367
            0.012000	            0.045732	           -1.261261	           -0.143092	           -0.190152	            0.006439	           -0.453791	           -0.030902	           -0.036883	           -0.016880	            0.001829	           -0.551106	           -0.377396	           -0.213544	            0.005654	           -0.681295	           -0.037511	           -0.018974	           -0.018902
            0.012500	            0.184252	           -1.082738	            0.270043	           -0.190152	            0.006439	           -0.453791	            0.007763	           -0.046122	            0.007640	           -0.233708	           -0.183990	           -0.282126	           -0.213544	            0.005654	           -0.681295	           -0.131541	            0.018229	            0.056674
            0.013000	            0.046154	           -1.081782	            0.041104	           -0.190152	            0.006439	           -0.453791	            0.073781	            0.027848	           -0.016869	           -0.186776	           -0.184490	           -0.094434	           -0.213544	            0.005654	           -0.681295	           -0.056281	           -0.009992	            0.094241
            0.013500	            0.274587	           -0.539761	           -0.232281	           -0.190152	            0.006439	           -0.453791	           -0.064937	            0.009349	            0.011949	           -0.419779	           -0.552963	           -0.283360	           -0.213544	            0.005654	           -0.681295	           -0.018768	           -0.009386	           -0.037726
            0.014000	            0.183225	            0.180498	           -0.045538	           -0.190152	            0.006439	           -0.453791	            0.001757	            0.046461	           -0.029589	           -0.091850	           -0.551612	           -0.330428	           -0.213544	            0.005654	           -0.681295	           -0.093860	           -0.010061	            0.075407
            0.014500	            0.137792	           -1.442099	           -0.006525	           -0.190152	            0.006439	           -0.453791	            0.000895	            0.000144	           -0.012884	            0.141091	           -0.182637	           -0.282285	           -0.213544	            0.005654	           -0.681295	           -0.056323	           -0.000472	            0.075425
            0.015000	            0.229263	            0.360379	            0.046833	           -0.190152	            0.006439	           -0.453791	           -0.021173	            0.028236	           -0.084056	           -0.231755	           -0.736100	           -0.377953	           -0.213544	            0.005654	           -0.681295	           -0.056364	           -0.000136	           -0.018826
            0.015500	            0.184058	           -1.262611	            0.177558	           -0.190152	            0.006439	           -0.453791	           -0.007164	           -0.073536	           -0.067626	            0.049988	           -0.919066	           -0.425658	           -0.213544	            0.005654	           -0.681295	           -0.131626	            0.037269	            0.019041
            0.016000	            0.137529	            0.000027	           -0.000341	           -0.190152	            0.006439	           -0.453791	           -0.037704	           -0.064325	           -0.069510	            0.095570	           -0.551102	           -0.283580	           -0.213544	            0.005654	           -0.681295	           -0.000120	            0.037676	            0.037835
            0.016500	            0.046739	           -0.542164	            0.318559	           -0.190152	            0.006439	           -0.453791	           -0.013476	            0.009515	           -0.054346	           -0.045665	           -0.367294	           -0.329791	           -0.213544	            0.005654	           -0.681295	            0.000145	           -0.037878	            0.018715
            0.017000	            0.045939	            0.720678	            0.094690	           -0.190152	            0.006439	           -0.453791	           -0.041818	           -0.009388	            0.039589	           -0.466526	           -0.553969	           -0.048700	           -0.213544	            0.005654	           -0.681295	           -0.056484	            0.037540	            0.019009
            0.017500	            0.229493	           -0.901481	            0.041422	           -0.190152	            0.006439	           -0.453791	           -0.076773	            0.037630	           -0.121429	           -0.138638	           -0.552283	           -0.189624	           -0.213544	            0.005654	           -0.681295	           -0.075295	            0.046858	            0.037901
            0.018000	            0.183944	           -1.262414	            0.131702	           -0.190152	            0.006439	           -0.453791	           -0.024048	            0.037461	           -0.085906	           -0.234373	            0.000158	           -0.281469	           -0.213544	            0.005654	           -0.681295	           -0.075116	           -0.009657	           -0.018852
